<svg width="1110" height="95" viewBox="0 0 1110 95" fill="none" xmlns="http://www.w3.org/2000/svg">
<g clip-path="url(#clip0_0_1301)">
<g clip-path="url(#clip1_0_1301)">
<rect x="947" y="1" width="163" height="44" rx="22" fill="url(#paint0_linear_0_1301)"/>
<path d="M988.687 28H987.112L985.32 23.765H982.779V28H981.281V17.878H985.299C986.424 17.878 987.261 18.1347 987.812 18.648C988.363 19.1567 988.638 19.845 988.638 20.713C988.638 21.259 988.545 21.714 988.358 22.078C988.176 22.442 987.938 22.7383 987.644 22.967C987.355 23.1957 987.049 23.3753 986.727 23.506L988.687 28ZM984.893 22.554C985.593 22.554 986.137 22.4023 986.524 22.099C986.916 21.7957 987.112 21.357 987.112 20.783C987.112 20.223 986.935 19.7983 986.58 19.509C986.23 19.2197 985.754 19.075 985.152 19.075H982.779V22.554H984.893ZM991.46 24.731C991.455 25.3797 991.616 25.921 991.943 26.355C992.269 26.789 992.755 27.006 993.399 27.006C993.828 27.006 994.199 26.908 994.512 26.712C994.829 26.516 995.037 26.2243 995.135 25.837H996.521C996.432 26.3363 996.234 26.7563 995.926 27.097C995.618 27.4377 995.242 27.6967 994.799 27.874C994.36 28.0513 993.903 28.14 993.427 28.14C992.741 28.14 992.136 27.993 991.614 27.699C991.091 27.4003 990.683 26.9757 990.389 26.425C990.099 25.8743 989.955 25.2187 989.955 24.458C989.955 23.7067 990.088 23.044 990.354 22.47C990.62 21.8913 991.002 21.4387 991.502 21.112C992.006 20.7853 992.615 20.622 993.329 20.622C994.374 20.622 995.172 20.951 995.723 21.609C996.278 22.2623 996.556 23.1373 996.556 24.234V24.731H991.46ZM991.46 23.758H995.128C995.128 23.1887 994.978 22.708 994.68 22.316C994.386 21.9193 993.933 21.721 993.322 21.721C992.906 21.721 992.561 21.8213 992.286 22.022C992.01 22.2227 991.803 22.4793 991.663 22.792C991.527 23.1047 991.46 23.4267 991.46 23.758ZM1004.55 30.254H1003.04V26.754C1002.93 26.964 1002.78 27.1763 1002.58 27.391C1002.39 27.6057 1002.15 27.7853 1001.85 27.93C1001.56 28.07 1001.22 28.14 1000.82 28.14C1000.26 28.14 999.742 28.007 999.285 27.741C998.828 27.475 998.466 27.0597 998.2 26.495C997.934 25.9257 997.801 25.193 997.801 24.297C997.801 23.1257 998.053 22.2203 998.557 21.581C999.061 20.9417 999.775 20.622 1000.7 20.622C1001.11 20.622 1001.47 20.692 1001.77 20.832C1002.08 20.9673 1002.33 21.14 1002.54 21.35C1002.75 21.5553 1002.92 21.7607 1003.04 21.966L1003.05 20.762H1004.55V30.254ZM1001.14 26.999C1001.56 26.999 1001.91 26.8777 1002.2 26.635C1002.48 26.3923 1002.69 26.0703 1002.83 25.669C1002.98 25.263 1003.05 24.815 1003.05 24.325C1003.05 23.5737 1002.89 22.96 1002.57 22.484C1002.25 22.0033 1001.77 21.763 1001.14 21.763C1000.58 21.763 1000.13 21.9753 999.768 22.4C999.413 22.8247 999.236 23.4663 999.236 24.325C999.236 25.1697 999.399 25.8277 999.726 26.299C1000.06 26.7657 1000.53 26.999 1001.14 26.999ZM1009.24 28.14C1008.76 28.1353 1008.3 28.042 1007.88 27.86C1007.46 27.678 1007.12 27.4073 1006.86 27.048C1006.6 26.684 1006.47 26.2337 1006.47 25.697V20.762H1007.97V25.536C1007.97 25.97 1008.11 26.3223 1008.38 26.593C1008.65 26.8637 1009.06 26.999 1009.61 26.999C1010.1 26.999 1010.5 26.8707 1010.8 26.614C1011.09 26.3527 1011.24 25.9723 1011.24 25.473V20.762H1012.73V28H1011.57L1011.4 26.6C1011.27 27.1693 1011 27.5707 1010.59 27.804C1010.18 28.0327 1009.73 28.1447 1009.24 28.14ZM1015.8 24.731C1015.79 25.3797 1015.95 25.921 1016.28 26.355C1016.61 26.789 1017.09 27.006 1017.73 27.006C1018.16 27.006 1018.53 26.908 1018.85 26.712C1019.16 26.516 1019.37 26.2243 1019.47 25.837H1020.86C1020.77 26.3363 1020.57 26.7563 1020.26 27.097C1019.95 27.4377 1019.58 27.6967 1019.13 27.874C1018.7 28.0513 1018.24 28.14 1017.76 28.14C1017.08 28.14 1016.47 27.993 1015.95 27.699C1015.43 27.4003 1015.02 26.9757 1014.72 26.425C1014.44 25.8743 1014.29 25.2187 1014.29 24.458C1014.29 23.7067 1014.42 23.044 1014.69 22.47C1014.96 21.8913 1015.34 21.4387 1015.84 21.112C1016.34 20.7853 1016.95 20.622 1017.66 20.622C1018.71 20.622 1019.51 20.951 1020.06 21.609C1020.61 22.2623 1020.89 23.1373 1020.89 24.234V24.731H1015.8ZM1015.8 23.758H1019.46C1019.46 23.1887 1019.31 22.708 1019.02 22.316C1018.72 21.9193 1018.27 21.721 1017.66 21.721C1017.24 21.721 1016.9 21.8213 1016.62 22.022C1016.35 22.2227 1016.14 22.4793 1016 22.792C1015.86 23.1047 1015.8 23.4267 1015.8 23.758ZM1025.18 28.14C1024.67 28.14 1024.19 28.0607 1023.75 27.902C1023.32 27.7387 1022.95 27.489 1022.65 27.153C1022.35 26.817 1022.17 26.3807 1022.1 25.844H1023.43C1023.53 26.2593 1023.73 26.565 1024.06 26.761C1024.38 26.957 1024.75 27.055 1025.17 27.055C1025.63 27.055 1025.99 26.9733 1026.27 26.81C1026.56 26.642 1026.7 26.3853 1026.7 26.04C1026.7 25.5687 1026.39 25.2607 1025.76 25.116L1024.31 24.773C1023.72 24.6377 1023.24 24.4183 1022.88 24.115C1022.52 23.807 1022.34 23.3753 1022.33 22.82C1022.33 22.1807 1022.57 21.6557 1023.05 21.245C1023.52 20.8297 1024.23 20.622 1025.17 20.622C1025.98 20.622 1026.63 20.804 1027.13 21.168C1027.63 21.532 1027.89 22.0593 1027.91 22.75H1026.61C1026.56 22.4187 1026.41 22.1597 1026.16 21.973C1025.9 21.7817 1025.57 21.686 1025.15 21.686C1024.72 21.686 1024.37 21.7723 1024.09 21.945C1023.82 22.113 1023.68 22.372 1023.68 22.722C1023.68 22.96 1023.79 23.149 1023.99 23.289C1024.19 23.4243 1024.49 23.5363 1024.89 23.625L1026.26 23.968C1026.73 24.0893 1027.09 24.262 1027.35 24.486C1027.6 24.71 1027.78 24.9527 1027.88 25.214C1027.98 25.4753 1028.03 25.7227 1028.03 25.956C1028.03 26.6373 1027.78 27.1717 1027.26 27.559C1026.75 27.9463 1026.06 28.14 1025.18 28.14ZM1033.47 21.84H1031.85L1031.85 26.159C1031.85 26.5137 1031.91 26.733 1032.03 26.817C1032.15 26.8963 1032.36 26.936 1032.67 26.936H1033.51V27.909C1033.42 27.9463 1033.28 27.979 1033.09 28.007C1032.91 28.035 1032.67 28.049 1032.39 28.049C1031.85 28.049 1031.43 27.9767 1031.13 27.832C1030.84 27.6873 1030.63 27.4797 1030.52 27.209C1030.4 26.9337 1030.35 26.6023 1030.35 26.215V21.84H1029.17V20.762H1030.39L1030.76 18.634H1031.85V20.755H1033.47V21.84ZM1038.66 17.878H1040.16V28H1038.66V17.878ZM1042.46 28V20.762H1043.92V21.805C1044.09 21.5157 1044.36 21.2543 1044.72 21.021C1045.09 20.7877 1045.56 20.671 1046.14 20.671C1046.59 20.671 1047.01 20.762 1047.39 20.944C1047.78 21.1213 1048.09 21.4013 1048.32 21.784C1048.56 22.162 1048.67 22.652 1048.67 23.254V28H1047.17V23.415C1047.17 22.897 1047.03 22.512 1046.75 22.26C1046.47 22.008 1046.12 21.882 1045.68 21.882C1045.38 21.882 1045.1 21.931 1044.84 22.029C1044.58 22.127 1044.36 22.2763 1044.2 22.477C1044.04 22.673 1043.95 22.9203 1043.95 23.219V28H1042.46ZM1056.17 20.762L1053.54 28H1052.27L1049.63 20.762H1051.02L1052.85 26.103H1052.95L1054.78 20.762H1056.17ZM1059.08 17.885V19.362H1057.57V17.885H1059.08ZM1059.05 20.762V28H1057.61V20.762H1059.05ZM1065.15 21.84H1063.52L1063.53 26.159C1063.53 26.5137 1063.59 26.733 1063.71 26.817C1063.82 26.8963 1064.04 26.936 1064.34 26.936H1065.19V27.909C1065.1 27.9463 1064.96 27.979 1064.77 28.007C1064.58 28.035 1064.35 28.049 1064.06 28.049C1063.53 28.049 1063.11 27.9767 1062.81 27.832C1062.52 27.6873 1062.31 27.4797 1062.19 27.209C1062.08 26.9337 1062.03 26.6023 1062.03 26.215V21.84H1060.85V20.762H1062.07L1062.44 18.634H1063.52V20.755H1065.15V21.84ZM1067.84 24.731C1067.84 25.3797 1068 25.921 1068.33 26.355C1068.65 26.789 1069.14 27.006 1069.78 27.006C1070.21 27.006 1070.58 26.908 1070.9 26.712C1071.21 26.516 1071.42 26.2243 1071.52 25.837H1072.91C1072.82 26.3363 1072.62 26.7563 1072.31 27.097C1072 27.4377 1071.63 27.6967 1071.18 27.874C1070.74 28.0513 1070.29 28.14 1069.81 28.14C1069.13 28.14 1068.52 27.993 1068 27.699C1067.48 27.4003 1067.07 26.9757 1066.77 26.425C1066.48 25.8743 1066.34 25.2187 1066.34 24.458C1066.34 23.7067 1066.47 23.044 1066.74 22.47C1067 21.8913 1067.39 21.4387 1067.89 21.112C1068.39 20.7853 1069 20.622 1069.71 20.622C1070.76 20.622 1071.56 20.951 1072.11 21.609C1072.66 22.2623 1072.94 23.1373 1072.94 24.234V24.731H1067.84ZM1067.84 23.758H1071.51C1071.51 23.1887 1071.36 22.708 1071.06 22.316C1070.77 21.9193 1070.32 21.721 1069.71 21.721C1069.29 21.721 1068.95 21.8213 1068.67 22.022C1068.39 22.2227 1068.19 22.4793 1068.05 22.792C1067.91 23.1047 1067.84 23.4267 1067.84 23.758Z" fill="white"/>
</g>
<g clip-path="url(#clip2_0_1301)">
<path d="M285.623 19L289.545 8.155H291.113L295.035 19H293.618L292.553 16.03H288.12L287.033 19H285.623ZM288.473 14.755H292.185L290.34 9.5275L288.473 14.755ZM300.395 19.15C299.79 19.15 299.308 19.0475 298.948 18.8425C298.588 18.6375 298.318 18.3975 298.138 18.1225C297.958 17.8475 297.835 17.61 297.77 17.41L297.62 19H296.563V7.855H297.958V12.475C298.043 12.305 298.19 12.1125 298.4 11.8975C298.61 11.6825 298.888 11.495 299.233 11.335C299.583 11.175 300.005 11.095 300.5 11.095C301.47 11.095 302.24 11.4325 302.81 12.1075C303.385 12.7825 303.673 13.7775 303.673 15.0925C303.673 16.3125 303.398 17.295 302.848 18.04C302.303 18.78 301.485 19.15 300.395 19.15ZM300.148 18.085C300.773 18.085 301.283 17.8425 301.678 17.3575C302.078 16.8675 302.278 16.09 302.278 15.025C302.278 14.12 302.093 13.42 301.723 12.925C301.358 12.425 300.823 12.175 300.118 12.175C299.348 12.175 298.798 12.425 298.468 12.925C298.138 13.42 297.968 14.12 297.958 15.025C297.958 16.11 298.125 16.8925 298.46 17.3725C298.8 17.8475 299.363 18.085 300.148 18.085ZM308.332 19.15C307.257 19.15 306.394 18.8075 305.744 18.1225C305.094 17.4375 304.769 16.4475 304.769 15.1525C304.769 14.3425 304.907 13.6325 305.182 13.0225C305.457 12.4125 305.859 11.94 306.389 11.605C306.919 11.265 307.567 11.095 308.332 11.095C309.402 11.095 310.257 11.445 310.897 12.145C311.537 12.845 311.857 13.8475 311.857 15.1525C311.857 15.9425 311.722 16.6375 311.452 17.2375C311.187 17.8375 310.792 18.3075 310.267 18.6475C309.747 18.9825 309.102 19.15 308.332 19.15ZM308.332 18.055C309.027 18.055 309.559 17.795 309.929 17.275C310.299 16.75 310.484 16.0325 310.484 15.1225C310.484 14.5675 310.409 14.07 310.259 13.63C310.114 13.185 309.884 12.8325 309.569 12.5725C309.254 12.3125 308.842 12.1825 308.332 12.1825C307.627 12.1825 307.087 12.4425 306.712 12.9625C306.337 13.4775 306.149 14.1975 306.149 15.1225C306.149 15.6675 306.224 16.1625 306.374 16.6075C306.524 17.0525 306.759 17.405 307.079 17.665C307.399 17.925 307.817 18.055 308.332 18.055ZM316.156 19.15C315.616 19.145 315.121 19.045 314.671 18.85C314.221 18.65 313.858 18.355 313.583 17.965C313.313 17.575 313.178 17.09 313.178 16.51V11.245H314.566V16.3675C314.566 16.8725 314.721 17.2825 315.031 17.5975C315.346 17.9125 315.818 18.07 316.448 18.07C317.018 18.07 317.476 17.9225 317.821 17.6275C318.171 17.3275 318.346 16.8825 318.346 16.2925V11.245H319.726V19H318.623L318.481 17.515C318.341 18.1 318.056 18.52 317.626 18.775C317.196 19.03 316.706 19.155 316.156 19.15ZM325.698 12.2575H323.95V17.08C323.95 17.495 324.015 17.75 324.145 17.845C324.28 17.935 324.53 17.98 324.895 17.98H325.743V18.91C325.643 18.945 325.498 18.975 325.308 19C325.118 19.025 324.88 19.0375 324.595 19.0375C323.79 19.0375 323.248 18.875 322.968 18.55C322.693 18.225 322.555 17.75 322.555 17.125V12.2575H321.295V11.245H322.593L322.93 8.9875H323.95V11.2375H325.698V12.2575ZM338.891 15.25C338.891 16.5 338.579 17.4625 337.954 18.1375C337.329 18.8125 336.319 19.15 334.924 19.15C333.514 19.15 332.501 18.805 331.886 18.115C331.271 17.42 330.964 16.4175 330.964 15.1075V8.155H332.404V15.3175C332.404 16.1925 332.621 16.8475 333.056 17.2825C333.491 17.7175 334.114 17.935 334.924 17.935C335.739 17.935 336.371 17.72 336.821 17.29C337.271 16.86 337.496 16.2025 337.496 15.3175V8.155H338.891V15.25ZM343.7 19.15C343.155 19.15 342.652 19.065 342.192 18.895C341.732 18.725 341.347 18.465 341.037 18.115C340.732 17.76 340.542 17.3025 340.467 16.7425H341.727C341.827 17.1975 342.055 17.54 342.41 17.77C342.77 18 343.197 18.115 343.692 18.115C344.212 18.115 344.632 18.0175 344.952 17.8225C345.272 17.6275 345.432 17.3275 345.432 16.9225C345.432 16.3775 345.09 16.0225 344.405 15.8575L342.8 15.46C342.17 15.31 341.667 15.075 341.292 14.755C340.922 14.435 340.737 13.9875 340.737 13.4125C340.732 12.7325 340.977 12.1775 341.472 11.7475C341.967 11.3125 342.707 11.095 343.692 11.095C344.532 11.095 345.21 11.285 345.725 11.665C346.245 12.045 346.515 12.5975 346.535 13.3225H345.312C345.257 12.9525 345.09 12.66 344.81 12.445C344.53 12.225 344.152 12.115 343.677 12.115C343.182 12.115 342.78 12.215 342.47 12.415C342.16 12.61 342.005 12.915 342.005 13.33C342.005 13.605 342.115 13.8225 342.335 13.9825C342.555 14.1375 342.88 14.2675 343.31 14.3725L344.862 14.7625C345.337 14.8875 345.707 15.065 345.972 15.295C346.237 15.525 346.422 15.7775 346.527 16.0525C346.632 16.3275 346.685 16.5925 346.685 16.8475C346.685 17.5625 346.422 18.125 345.897 18.535C345.372 18.945 344.64 19.15 343.7 19.15Z" fill="white"/>
<path d="M290.423 42.005C291.183 42.005 291.858 42.165 292.448 42.485C293.043 42.8 293.52 43.2225 293.88 43.7525C294.24 44.2825 294.453 44.865 294.518 45.5H293.04C292.915 44.865 292.63 44.325 292.185 43.88C291.745 43.435 291.145 43.2125 290.385 43.2125C289.395 43.2125 288.64 43.5625 288.12 44.2625C287.605 44.9575 287.348 46.055 287.348 47.555C287.348 49.065 287.605 50.175 288.12 50.885C288.64 51.59 289.395 51.9425 290.385 51.9425C290.895 51.9425 291.333 51.835 291.698 51.62C292.063 51.4 292.358 51.1125 292.583 50.7575C292.808 50.3975 292.96 50.0075 293.04 49.5875H294.518C294.443 50.2025 294.245 50.7825 293.925 51.3275C293.61 51.8675 293.163 52.3075 292.583 52.6475C292.003 52.9825 291.283 53.15 290.423 53.15C288.958 53.15 287.823 52.6575 287.018 51.6725C286.213 50.6875 285.81 49.31 285.81 47.54C285.81 45.775 286.21 44.4125 287.01 43.4525C287.815 42.4875 288.953 42.005 290.423 42.005ZM299.293 53.15C298.218 53.15 297.356 52.8075 296.706 52.1225C296.056 51.4375 295.731 50.4475 295.731 49.1525C295.731 48.3425 295.868 47.6325 296.143 47.0225C296.418 46.4125 296.821 45.94 297.351 45.605C297.881 45.265 298.528 45.095 299.293 45.095C300.363 45.095 301.218 45.445 301.858 46.145C302.498 46.845 302.818 47.8475 302.818 49.1525C302.818 49.9425 302.683 50.6375 302.413 51.2375C302.148 51.8375 301.753 52.3075 301.228 52.6475C300.708 52.9825 300.063 53.15 299.293 53.15ZM299.293 52.055C299.988 52.055 300.521 51.795 300.891 51.275C301.261 50.75 301.446 50.0325 301.446 49.1225C301.446 48.5675 301.371 48.07 301.221 47.63C301.076 47.185 300.846 46.8325 300.531 46.5725C300.216 46.3125 299.803 46.1825 299.293 46.1825C298.588 46.1825 298.048 46.4425 297.673 46.9625C297.298 47.4775 297.111 48.1975 297.111 49.1225C297.111 49.6675 297.186 50.1625 297.336 50.6075C297.486 51.0525 297.721 51.405 298.041 51.665C298.361 51.925 298.778 52.055 299.293 52.055ZM304.399 53V45.245H305.742V46.37C305.932 46.045 306.229 45.7575 306.634 45.5075C307.039 45.2575 307.552 45.1325 308.172 45.1325C308.662 45.1325 309.112 45.23 309.522 45.425C309.937 45.62 310.267 45.925 310.512 46.34C310.762 46.75 310.887 47.28 310.887 47.93V53H309.499V48.065C309.499 47.46 309.339 47.0125 309.019 46.7225C308.704 46.4275 308.294 46.28 307.789 46.28C307.439 46.28 307.112 46.3375 306.807 46.4525C306.502 46.5625 306.254 46.7325 306.064 46.9625C305.874 47.1875 305.779 47.4725 305.779 47.8175V53H304.399ZM316.396 46.2575H314.649V51.08C314.649 51.495 314.714 51.75 314.844 51.845C314.979 51.935 315.229 51.98 315.594 51.98H316.441V52.91C316.341 52.945 316.196 52.975 316.006 53C315.816 53.025 315.579 53.0375 315.294 53.0375C314.489 53.0375 313.946 52.875 313.666 52.55C313.391 52.225 313.254 51.75 313.254 51.125V46.2575H311.994V45.245H313.291L313.629 42.9875H314.649V45.2375H316.396V46.2575ZM320.241 53.15C319.486 53.15 318.871 52.9525 318.396 52.5575C317.921 52.1625 317.683 51.61 317.683 50.9C317.683 50.04 317.983 49.4 318.583 48.98C319.183 48.56 320.146 48.335 321.471 48.305L322.858 48.2675V47.66C322.858 47.185 322.713 46.81 322.423 46.535C322.138 46.255 321.698 46.115 321.103 46.115C320.658 46.12 320.266 46.2275 319.926 46.4375C319.586 46.6425 319.368 46.975 319.273 47.435H318.051C318.091 46.68 318.386 46.1025 318.936 45.7025C319.486 45.2975 320.231 45.095 321.171 45.095C322.181 45.095 322.936 45.3075 323.436 45.7325C323.941 46.1575 324.193 46.775 324.193 47.585V53H323.008L322.911 51.545C322.606 52.15 322.223 52.57 321.763 52.805C321.303 53.035 320.796 53.15 320.241 53.15ZM320.661 52.1525C321.006 52.1525 321.346 52.07 321.681 51.905C322.021 51.74 322.301 51.53 322.521 51.275C322.741 51.015 322.853 50.74 322.858 50.45V49.1225L321.703 49.145C320.813 49.16 320.146 49.2925 319.701 49.5425C319.256 49.7875 319.033 50.195 319.033 50.765C319.033 51.205 319.183 51.5475 319.483 51.7925C319.788 52.0325 320.181 52.1525 320.661 52.1525ZM329.418 45.095C330.253 45.095 330.956 45.3325 331.526 45.8075C332.096 46.2775 332.433 46.9075 332.538 47.6975H331.308C331.238 47.2925 331.041 46.945 330.716 46.655C330.391 46.36 329.961 46.2125 329.426 46.2125C328.766 46.2125 328.226 46.4525 327.806 46.9325C327.391 47.4125 327.183 48.1475 327.183 49.1375C327.183 50.0325 327.373 50.75 327.753 51.29C328.138 51.825 328.703 52.0925 329.448 52.0925C329.978 52.0925 330.406 51.9425 330.731 51.6425C331.056 51.3425 331.251 50.9975 331.316 50.6075H332.523C332.423 51.3875 332.086 52.0075 331.511 52.4675C330.941 52.9225 330.243 53.15 329.418 53.15C328.718 53.15 328.101 52.9975 327.566 52.6925C327.031 52.3875 326.611 51.9375 326.306 51.3425C326.001 50.7475 325.848 50.0175 325.848 49.1525C325.848 48.3475 325.986 47.64 326.261 47.03C326.541 46.42 326.946 45.945 327.476 45.605C328.011 45.265 328.658 45.095 329.418 45.095ZM337.871 46.2575H336.123V51.08C336.123 51.495 336.188 51.75 336.318 51.845C336.453 51.935 336.703 51.98 337.068 51.98H337.916V52.91C337.816 52.945 337.671 52.975 337.481 53C337.291 53.025 337.053 53.0375 336.768 53.0375C335.963 53.0375 335.421 52.875 335.141 52.55C334.866 52.225 334.728 51.75 334.728 51.125V46.2575H333.468V45.245H334.766L335.103 42.9875H336.123V45.2375H337.871V46.2575Z" fill="white"/>
<path d="M286.433 87V76.155H289.92C291.24 76.155 292.238 76.3975 292.913 76.8825C293.593 77.3675 293.933 78.0675 293.933 78.9825C293.933 79.5575 293.783 80.05 293.483 80.46C293.183 80.87 292.663 81.2075 291.923 81.4725C292.778 81.6575 293.37 81.9875 293.7 82.4625C294.035 82.9325 294.203 83.4725 294.203 84.0825C294.203 86.0275 292.813 87 290.033 87H286.433ZM287.82 80.925H290.183C290.558 80.925 290.93 80.8725 291.3 80.7675C291.67 80.6625 291.978 80.4825 292.223 80.2275C292.468 79.9725 292.59 79.615 292.59 79.155C292.59 78.525 292.348 78.06 291.863 77.76C291.383 77.455 290.758 77.3025 289.988 77.3025H287.82V80.925ZM287.82 85.845H290.018C290.923 85.845 291.61 85.6975 292.08 85.4025C292.555 85.1025 292.793 84.6425 292.793 84.0225C292.793 83.5675 292.675 83.2 292.44 82.92C292.21 82.635 291.898 82.4275 291.503 82.2975C291.108 82.1675 290.668 82.1025 290.183 82.1025H287.82V85.845ZM297.934 87.0975C297.374 87.0975 296.954 87 296.674 86.805C296.394 86.605 296.207 86.3475 296.112 86.0325C296.022 85.7125 295.977 85.37 295.977 85.005V75.855H297.342V84.87C297.342 85.265 297.417 85.56 297.567 85.755C297.722 85.945 297.937 86.05 298.212 86.07L298.632 86.0775V86.9775C298.382 87.0575 298.149 87.0975 297.934 87.0975ZM303.161 87.15C302.086 87.15 301.223 86.8075 300.573 86.1225C299.923 85.4375 299.598 84.4475 299.598 83.1525C299.598 82.3425 299.736 81.6325 300.011 81.0225C300.286 80.4125 300.688 79.94 301.218 79.605C301.748 79.265 302.396 79.095 303.161 79.095C304.231 79.095 305.086 79.445 305.726 80.145C306.366 80.845 306.686 81.8475 306.686 83.1525C306.686 83.9425 306.551 84.6375 306.281 85.2375C306.016 85.8375 305.621 86.3075 305.096 86.6475C304.576 86.9825 303.931 87.15 303.161 87.15ZM303.161 86.055C303.856 86.055 304.388 85.795 304.758 85.275C305.128 84.75 305.313 84.0325 305.313 83.1225C305.313 82.5675 305.238 82.07 305.088 81.63C304.943 81.185 304.713 80.8325 304.398 80.5725C304.083 80.3125 303.671 80.1825 303.161 80.1825C302.456 80.1825 301.916 80.4425 301.541 80.9625C301.166 81.4775 300.978 82.1975 300.978 83.1225C300.978 83.6675 301.053 84.1625 301.203 84.6075C301.353 85.0525 301.588 85.405 301.908 85.665C302.228 85.925 302.646 86.055 303.161 86.055ZM311.478 89.565C310.263 89.565 309.316 89.3875 308.636 89.0325C307.956 88.6825 307.616 88.18 307.616 87.525C307.616 87.245 307.681 87.0075 307.811 86.8125C307.941 86.6125 308.096 86.4475 308.276 86.3175C308.456 86.1875 308.623 86.085 308.778 86.01C308.933 85.93 309.033 85.8725 309.078 85.8375C308.993 85.7875 308.886 85.725 308.756 85.65C308.631 85.575 308.521 85.475 308.426 85.35C308.331 85.225 308.283 85.0625 308.283 84.8625C308.283 84.6175 308.396 84.395 308.621 84.195C308.851 83.99 309.193 83.835 309.648 83.73C309.193 83.505 308.838 83.2025 308.583 82.8225C308.328 82.4375 308.201 82.0225 308.201 81.5775C308.201 80.8225 308.501 80.225 309.101 79.785C309.701 79.345 310.526 79.125 311.576 79.125C312.081 79.125 312.506 79.185 312.851 79.305C313.196 79.42 313.516 79.585 313.811 79.8C313.921 79.755 314.106 79.6775 314.366 79.5675C314.626 79.4575 314.891 79.3475 315.161 79.2375C315.436 79.1225 315.646 79.0375 315.791 78.9825L315.783 80.265L314.426 80.52C314.596 80.87 314.681 81.2225 314.681 81.5775C314.681 82.2625 314.411 82.8425 313.871 83.3175C313.336 83.7925 312.528 84.03 311.448 84.03C311.388 84.03 311.311 84.03 311.216 84.03C311.126 84.025 311.048 84.02 310.983 84.015C310.448 84.03 310.081 84.09 309.881 84.195C309.686 84.3 309.588 84.4125 309.588 84.5325C309.588 84.6775 309.701 84.7775 309.926 84.8325C310.151 84.8875 310.533 84.935 311.073 84.975C311.268 84.985 311.508 85 311.793 85.02C312.078 85.035 312.398 85.0525 312.753 85.0725C313.568 85.1225 314.196 85.33 314.636 85.695C315.076 86.06 315.296 86.5525 315.296 87.1725C315.296 87.8775 314.981 88.4525 314.351 88.8975C313.721 89.3425 312.763 89.565 311.478 89.565ZM311.486 83.1375C312.046 83.1375 312.496 83.0075 312.836 82.7475C313.181 82.4875 313.353 82.1025 313.353 81.5925C313.353 81.0725 313.181 80.675 312.836 80.4C312.496 80.12 312.046 79.98 311.486 79.98C310.921 79.98 310.463 80.12 310.113 80.4C309.768 80.675 309.596 81.0725 309.596 81.5925C309.596 82.0825 309.761 82.4625 310.091 82.7325C310.421 83.0025 310.886 83.1375 311.486 83.1375ZM311.726 88.6725C312.441 88.6725 312.988 88.565 313.368 88.35C313.748 88.135 313.938 87.81 313.938 87.375C313.938 87.07 313.821 86.8175 313.586 86.6175C313.356 86.4175 313.003 86.3025 312.528 86.2725L310.353 86.13C310.158 86.12 309.956 86.17 309.746 86.28C309.536 86.385 309.356 86.5325 309.206 86.7225C309.061 86.9125 308.988 87.1275 308.988 87.3675C308.988 87.7825 309.211 88.1025 309.656 88.3275C310.101 88.5575 310.791 88.6725 311.726 88.6725Z" fill="white"/>
</g>
<g clip-path="url(#clip3_0_1301)">
<path d="M480.423 8.005C481.183 8.005 481.858 8.165 482.448 8.485C483.043 8.8 483.52 9.2225 483.88 9.7525C484.24 10.2825 484.453 10.865 484.518 11.5H483.04C482.915 10.865 482.63 10.325 482.185 9.88C481.745 9.435 481.145 9.2125 480.385 9.2125C479.395 9.2125 478.64 9.5625 478.12 10.2625C477.605 10.9575 477.348 12.055 477.348 13.555C477.348 15.065 477.605 16.175 478.12 16.885C478.64 17.59 479.395 17.9425 480.385 17.9425C480.895 17.9425 481.333 17.835 481.698 17.62C482.063 17.4 482.358 17.1125 482.583 16.7575C482.808 16.3975 482.96 16.0075 483.04 15.5875H484.518C484.443 16.2025 484.245 16.7825 483.925 17.3275C483.61 17.8675 483.163 18.3075 482.583 18.6475C482.003 18.9825 481.283 19.15 480.423 19.15C478.958 19.15 477.823 18.6575 477.018 17.6725C476.213 16.6875 475.81 15.31 475.81 13.54C475.81 11.775 476.21 10.4125 477.01 9.4525C477.815 8.4875 478.953 8.005 480.423 8.005ZM488.283 19.15C487.528 19.15 486.913 18.9525 486.438 18.5575C485.963 18.1625 485.725 17.61 485.725 16.9C485.725 16.04 486.025 15.4 486.625 14.98C487.225 14.56 488.188 14.335 489.513 14.305L490.9 14.2675V13.66C490.9 13.185 490.755 12.81 490.465 12.535C490.18 12.255 489.74 12.115 489.145 12.115C488.7 12.12 488.308 12.2275 487.968 12.4375C487.628 12.6425 487.41 12.975 487.315 13.435H486.093C486.133 12.68 486.428 12.1025 486.978 11.7025C487.528 11.2975 488.273 11.095 489.213 11.095C490.223 11.095 490.978 11.3075 491.478 11.7325C491.983 12.1575 492.235 12.775 492.235 13.585V19H491.05L490.953 17.545C490.648 18.15 490.265 18.57 489.805 18.805C489.345 19.035 488.838 19.15 488.283 19.15ZM488.703 18.1525C489.048 18.1525 489.388 18.07 489.723 17.905C490.063 17.74 490.343 17.53 490.563 17.275C490.783 17.015 490.895 16.74 490.9 16.45V15.1225L489.745 15.145C488.855 15.16 488.188 15.2925 487.743 15.5425C487.298 15.7875 487.075 16.195 487.075 16.765C487.075 17.205 487.225 17.5475 487.525 17.7925C487.83 18.0325 488.223 18.1525 488.703 18.1525ZM494.37 19V11.245H495.69V12.7375C495.885 12.1825 496.193 11.77 496.613 11.5C497.038 11.23 497.495 11.095 497.985 11.095C498.1 11.095 498.21 11.1025 498.315 11.1175C498.425 11.1325 498.513 11.1575 498.578 11.1925V12.535C498.503 12.5 498.405 12.4775 498.285 12.4675C498.17 12.4525 498.073 12.445 497.993 12.445C497.378 12.405 496.85 12.5225 496.41 12.7975C495.97 13.0725 495.75 13.5325 495.75 14.1775V19H494.37ZM500.765 15.445C500.765 15.935 500.845 16.38 501.005 16.78C501.17 17.175 501.418 17.49 501.748 17.725C502.083 17.96 502.5 18.0775 503 18.0775C503.495 18.0775 503.92 17.9625 504.275 17.7325C504.635 17.5025 504.865 17.17 504.965 16.735H506.278C506.183 17.26 505.973 17.7025 505.648 18.0625C505.323 18.4225 504.93 18.695 504.47 18.88C504.01 19.06 503.53 19.15 503.03 19.15C502.305 19.15 501.668 18.9925 501.118 18.6775C500.568 18.3625 500.138 17.91 499.828 17.32C499.518 16.73 499.363 16.0225 499.363 15.1975C499.363 14.3825 499.503 13.6675 499.783 13.0525C500.063 12.4375 500.468 11.9575 500.998 11.6125C501.533 11.2675 502.175 11.095 502.925 11.095C504.02 11.095 504.86 11.4425 505.445 12.1375C506.03 12.8275 506.323 13.76 506.323 14.935V15.445H500.765ZM500.773 14.5075H504.988C504.988 13.8425 504.818 13.2825 504.478 12.8275C504.138 12.3725 503.618 12.145 502.918 12.145C502.433 12.145 502.03 12.2625 501.71 12.4975C501.39 12.7275 501.153 13.025 500.998 13.39C500.843 13.75 500.768 14.1225 500.773 14.5075ZM508.983 15.445C508.983 15.935 509.063 16.38 509.223 16.78C509.388 17.175 509.636 17.49 509.966 17.725C510.301 17.96 510.718 18.0775 511.218 18.0775C511.713 18.0775 512.138 17.9625 512.493 17.7325C512.853 17.5025 513.083 17.17 513.183 16.735H514.496C514.401 17.26 514.191 17.7025 513.866 18.0625C513.541 18.4225 513.148 18.695 512.688 18.88C512.228 19.06 511.748 19.15 511.248 19.15C510.523 19.15 509.886 18.9925 509.336 18.6775C508.786 18.3625 508.356 17.91 508.046 17.32C507.736 16.73 507.581 16.0225 507.581 15.1975C507.581 14.3825 507.721 13.6675 508.001 13.0525C508.281 12.4375 508.686 11.9575 509.216 11.6125C509.751 11.2675 510.393 11.095 511.143 11.095C512.238 11.095 513.078 11.4425 513.663 12.1375C514.248 12.8275 514.541 13.76 514.541 14.935V15.445H508.983ZM508.991 14.5075H513.206C513.206 13.8425 513.036 13.2825 512.696 12.8275C512.356 12.3725 511.836 12.145 511.136 12.145C510.651 12.145 510.248 12.2625 509.928 12.4975C509.608 12.7275 509.371 13.025 509.216 13.39C509.061 13.75 508.986 14.1225 508.991 14.5075ZM516.211 19V11.245H517.531V12.7375C517.726 12.1825 518.033 11.77 518.453 11.5C518.878 11.23 519.336 11.095 519.826 11.095C519.941 11.095 520.051 11.1025 520.156 11.1175C520.266 11.1325 520.353 11.1575 520.418 11.1925V12.535C520.343 12.5 520.246 12.4775 520.126 12.4675C520.011 12.4525 519.913 12.445 519.833 12.445C519.218 12.405 518.691 12.5225 518.251 12.7975C517.811 13.0725 517.591 13.5325 517.591 14.1775V19H516.211ZM524.486 19.15C523.941 19.15 523.438 19.065 522.978 18.895C522.518 18.725 522.133 18.465 521.823 18.115C521.518 17.76 521.328 17.3025 521.253 16.7425H522.513C522.613 17.1975 522.841 17.54 523.196 17.77C523.556 18 523.983 18.115 524.478 18.115C524.998 18.115 525.418 18.0175 525.738 17.8225C526.058 17.6275 526.218 17.3275 526.218 16.9225C526.218 16.3775 525.876 16.0225 525.191 15.8575L523.586 15.46C522.956 15.31 522.453 15.075 522.078 14.755C521.708 14.435 521.523 13.9875 521.523 13.4125C521.518 12.7325 521.763 12.1775 522.258 11.7475C522.753 11.3125 523.493 11.095 524.478 11.095C525.318 11.095 525.996 11.285 526.511 11.665C527.031 12.045 527.301 12.5975 527.321 13.3225H526.098C526.043 12.9525 525.876 12.66 525.596 12.445C525.316 12.225 524.938 12.115 524.463 12.115C523.968 12.115 523.566 12.215 523.256 12.415C522.946 12.61 522.791 12.915 522.791 13.33C522.791 13.605 522.901 13.8225 523.121 13.9825C523.341 14.1375 523.666 14.2675 524.096 14.3725L525.648 14.7625C526.123 14.8875 526.493 15.065 526.758 15.295C527.023 15.525 527.208 15.7775 527.313 16.0525C527.418 16.3275 527.471 16.5925 527.471 16.8475C527.471 17.5625 527.208 18.125 526.683 18.535C526.158 18.945 525.426 19.15 524.486 19.15Z" fill="white"/>
<path d="M480.115 53.15C479.435 53.15 478.788 53.0375 478.173 52.8125C477.563 52.5825 477.048 52.2425 476.628 51.7925C476.213 51.3425 475.96 50.785 475.87 50.12H477.325C477.46 50.735 477.788 51.2025 478.308 51.5225C478.828 51.8375 479.428 51.995 480.108 51.995C480.873 51.995 481.508 51.8375 482.013 51.5225C482.523 51.2025 482.778 50.7675 482.778 50.2175C482.778 49.7275 482.613 49.3375 482.283 49.0475C481.958 48.7525 481.495 48.535 480.895 48.395L478.765 47.9C477.965 47.725 477.338 47.4125 476.883 46.9625C476.433 46.5125 476.203 45.9175 476.193 45.1775C476.193 44.5525 476.358 44.0025 476.688 43.5275C477.018 43.0525 477.475 42.6825 478.06 42.4175C478.645 42.1525 479.313 42.02 480.063 42.02C480.928 42.02 481.655 42.1675 482.245 42.4625C482.835 42.7575 483.28 43.145 483.58 43.625C483.88 44.105 484.033 44.6175 484.038 45.1625H482.605C482.56 44.6725 482.415 44.285 482.17 44C481.93 43.71 481.625 43.505 481.255 43.385C480.89 43.26 480.495 43.1975 480.07 43.1975C479.66 43.1975 479.27 43.2675 478.9 43.4075C478.535 43.5475 478.235 43.755 478 44.03C477.77 44.3 477.655 44.6375 477.655 45.0425C477.655 45.4375 477.788 45.7575 478.053 46.0025C478.318 46.2425 478.805 46.45 479.515 46.625L481.578 47.12C482.298 47.275 482.845 47.5225 483.22 47.8625C483.595 48.1975 483.85 48.5725 483.985 48.9875C484.125 49.4025 484.195 49.8075 484.195 50.2025C484.195 50.7475 484.033 51.2425 483.708 51.6875C483.388 52.1325 482.923 52.4875 482.313 52.7525C481.703 53.0175 480.97 53.15 480.115 53.15ZM488.871 53.15C488.331 53.145 487.836 53.045 487.386 52.85C486.936 52.65 486.573 52.355 486.298 51.965C486.028 51.575 485.893 51.09 485.893 50.51V45.245H487.281V50.3675C487.281 50.8725 487.436 51.2825 487.746 51.5975C488.061 51.9125 488.533 52.07 489.163 52.07C489.733 52.07 490.191 51.9225 490.536 51.6275C490.886 51.3275 491.061 50.8825 491.061 50.2925V45.245H492.441V53H491.338L491.196 51.515C491.056 52.1 490.771 52.52 490.341 52.775C489.911 53.03 489.421 53.155 488.871 53.15ZM494.473 55.415V45.245H495.853L495.868 46.595C495.988 46.385 496.155 46.165 496.37 45.935C496.59 45.7 496.868 45.5025 497.203 45.3425C497.538 45.1775 497.943 45.095 498.418 45.095C499.343 45.095 500.098 45.415 500.683 46.055C501.268 46.695 501.56 47.6825 501.56 49.0175C501.56 50.3475 501.273 51.37 500.698 52.085C500.123 52.795 499.325 53.15 498.305 53.15C497.845 53.15 497.453 53.0675 497.128 52.9025C496.808 52.7325 496.545 52.5275 496.34 52.2875C496.135 52.0475 495.978 51.8175 495.868 51.5975V55.415H494.473ZM498.043 52.07C498.683 52.07 499.205 51.8275 499.61 51.3425C500.015 50.8525 500.218 50.0925 500.218 49.0625C500.218 48.1825 500.033 47.4825 499.663 46.9625C499.293 46.4375 498.753 46.175 498.043 46.175C497.323 46.175 496.778 46.4425 496.408 46.9775C496.038 47.5125 495.853 48.2075 495.853 49.0625C495.853 49.6175 495.935 50.1225 496.1 50.5775C496.265 51.0325 496.51 51.395 496.835 51.665C497.16 51.935 497.563 52.07 498.043 52.07ZM503.145 55.415V45.245H504.525L504.54 46.595C504.66 46.385 504.827 46.165 505.042 45.935C505.262 45.7 505.54 45.5025 505.875 45.3425C506.21 45.1775 506.615 45.095 507.09 45.095C508.015 45.095 508.77 45.415 509.355 46.055C509.94 46.695 510.232 47.6825 510.232 49.0175C510.232 50.3475 509.945 51.37 509.37 52.085C508.795 52.795 507.997 53.15 506.977 53.15C506.517 53.15 506.125 53.0675 505.8 52.9025C505.48 52.7325 505.217 52.5275 505.012 52.2875C504.807 52.0475 504.65 51.8175 504.54 51.5975V55.415H503.145ZM506.715 52.07C507.355 52.07 507.877 51.8275 508.282 51.3425C508.687 50.8525 508.89 50.0925 508.89 49.0625C508.89 48.1825 508.705 47.4825 508.335 46.9625C507.965 46.4375 507.425 46.175 506.715 46.175C505.995 46.175 505.45 46.4425 505.08 46.9775C504.71 47.5125 504.525 48.2075 504.525 49.0625C504.525 49.6175 504.607 50.1225 504.772 50.5775C504.937 51.0325 505.182 51.395 505.507 51.665C505.832 51.935 506.235 52.07 506.715 52.07ZM514.899 53.15C513.824 53.15 512.961 52.8075 512.311 52.1225C511.661 51.4375 511.336 50.4475 511.336 49.1525C511.336 48.3425 511.474 47.6325 511.749 47.0225C512.024 46.4125 512.426 45.94 512.956 45.605C513.486 45.265 514.134 45.095 514.899 45.095C515.969 45.095 516.824 45.445 517.464 46.145C518.104 46.845 518.424 47.8475 518.424 49.1525C518.424 49.9425 518.289 50.6375 518.019 51.2375C517.754 51.8375 517.359 52.3075 516.834 52.6475C516.314 52.9825 515.669 53.15 514.899 53.15ZM514.899 52.055C515.594 52.055 516.126 51.795 516.496 51.275C516.866 50.75 517.051 50.0325 517.051 49.1225C517.051 48.5675 516.976 48.07 516.826 47.63C516.681 47.185 516.451 46.8325 516.136 46.5725C515.821 46.3125 515.409 46.1825 514.899 46.1825C514.194 46.1825 513.654 46.4425 513.279 46.9625C512.904 47.4775 512.716 48.1975 512.716 49.1225C512.716 49.6675 512.791 50.1625 512.941 50.6075C513.091 51.0525 513.326 51.405 513.646 51.665C513.966 51.925 514.384 52.055 514.899 52.055ZM520.005 53V45.245H521.325V46.7375C521.52 46.1825 521.827 45.77 522.247 45.5C522.672 45.23 523.13 45.095 523.62 45.095C523.735 45.095 523.845 45.1025 523.95 45.1175C524.06 45.1325 524.147 45.1575 524.212 45.1925V46.535C524.137 46.5 524.04 46.4775 523.92 46.4675C523.805 46.4525 523.707 46.445 523.627 46.445C523.012 46.405 522.485 46.5225 522.045 46.7975C521.605 47.0725 521.385 47.5325 521.385 48.1775V53H520.005ZM529.702 46.2575H527.954V51.08C527.954 51.495 528.019 51.75 528.149 51.845C528.284 51.935 528.534 51.98 528.899 51.98H529.747V52.91C529.647 52.945 529.502 52.975 529.312 53C529.122 53.025 528.884 53.0375 528.599 53.0375C527.794 53.0375 527.252 52.875 526.972 52.55C526.697 52.225 526.559 51.75 526.559 51.125V46.2575H525.299V45.245H526.597L526.934 42.9875H527.954V45.2375H529.702V46.2575Z" fill="white"/>
<path d="M476.433 87V76.155H480.1C480.875 76.155 481.565 76.285 482.17 76.545C482.775 76.805 483.25 77.19 483.595 77.7C483.945 78.21 484.12 78.8375 484.12 79.5825C484.12 80.3025 483.958 80.9175 483.633 81.4275C483.313 81.9325 482.865 82.32 482.29 82.59C481.715 82.855 481.048 82.9875 480.288 82.9875H477.858V87H476.433ZM477.85 81.8175H480.258C480.998 81.8175 481.6 81.61 482.065 81.195C482.535 80.78 482.77 80.215 482.77 79.5C482.77 78.78 482.53 78.235 482.05 77.865C481.57 77.495 480.95 77.31 480.19 77.31H477.85V81.8175ZM485.464 87V79.245H486.784V80.7375C486.979 80.1825 487.286 79.77 487.706 79.5C488.131 79.23 488.589 79.095 489.079 79.095C489.194 79.095 489.304 79.1025 489.409 79.1175C489.519 79.1325 489.606 79.1575 489.671 79.1925V80.535C489.596 80.5 489.499 80.4775 489.379 80.4675C489.264 80.4525 489.166 80.445 489.086 80.445C488.471 80.405 487.944 80.5225 487.504 80.7975C487.064 81.0725 486.844 81.5325 486.844 82.1775V87H485.464ZM492.575 76.1625V77.6025H491.157V76.1625H492.575ZM492.545 79.245V87H491.202V79.245H492.545ZM500.811 79.245L498.014 87H496.754L493.949 79.245H495.254L497.316 85.26H497.444L499.514 79.245H500.811ZM503.927 87.15C503.172 87.15 502.557 86.9525 502.082 86.5575C501.607 86.1625 501.37 85.61 501.37 84.9C501.37 84.04 501.67 83.4 502.27 82.98C502.87 82.56 503.832 82.335 505.157 82.305L506.545 82.2675V81.66C506.545 81.185 506.4 80.81 506.11 80.535C505.825 80.255 505.385 80.115 504.79 80.115C504.345 80.12 503.952 80.2275 503.612 80.4375C503.272 80.6425 503.055 80.975 502.96 81.435H501.737C501.777 80.68 502.072 80.1025 502.622 79.7025C503.172 79.2975 503.917 79.095 504.857 79.095C505.867 79.095 506.622 79.3075 507.122 79.7325C507.627 80.1575 507.88 80.775 507.88 81.585V87H506.695L506.597 85.545C506.292 86.15 505.91 86.57 505.45 86.805C504.99 87.035 504.482 87.15 503.927 87.15ZM504.347 86.1525C504.692 86.1525 505.032 86.07 505.367 85.905C505.707 85.74 505.987 85.53 506.207 85.275C506.427 85.015 506.54 84.74 506.545 84.45V83.1225L505.39 83.145C504.5 83.16 503.832 83.2925 503.387 83.5425C502.942 83.7875 502.72 84.195 502.72 84.765C502.72 85.205 502.87 85.5475 503.17 85.7925C503.475 86.0325 503.867 86.1525 504.347 86.1525ZM513.105 79.095C513.94 79.095 514.642 79.3325 515.212 79.8075C515.782 80.2775 516.12 80.9075 516.225 81.6975H514.995C514.925 81.2925 514.727 80.945 514.402 80.655C514.077 80.36 513.647 80.2125 513.112 80.2125C512.452 80.2125 511.912 80.4525 511.492 80.9325C511.077 81.4125 510.87 82.1475 510.87 83.1375C510.87 84.0325 511.06 84.75 511.44 85.29C511.825 85.825 512.39 86.0925 513.135 86.0925C513.665 86.0925 514.092 85.9425 514.417 85.6425C514.742 85.3425 514.937 84.9975 515.002 84.6075H516.21C516.11 85.3875 515.772 86.0075 515.197 86.4675C514.627 86.9225 513.93 87.15 513.105 87.15C512.405 87.15 511.787 86.9975 511.252 86.6925C510.717 86.3875 510.297 85.9375 509.992 85.3425C509.687 84.7475 509.535 84.0175 509.535 83.1525C509.535 82.3475 509.672 81.64 509.947 81.03C510.227 80.42 510.632 79.945 511.162 79.605C511.697 79.265 512.345 79.095 513.105 79.095ZM518.499 89.475C518.044 89.475 517.732 89.4425 517.562 89.3775C517.392 89.3125 517.307 89.28 517.307 89.28V88.38L518.094 88.395C518.479 88.41 518.777 88.3725 518.987 88.2825C519.202 88.1925 519.359 88.08 519.459 87.945C519.559 87.81 519.637 87.6775 519.692 87.5475L519.962 86.8125L516.932 79.245H518.334L520.622 85.23L522.894 79.245H524.252L520.982 87.585C520.682 88.325 520.327 88.825 519.917 89.085C519.507 89.345 519.034 89.475 518.499 89.475ZM528.947 87V76.155H532.615C533.39 76.155 534.08 76.285 534.685 76.545C535.29 76.805 535.765 77.19 536.11 77.7C536.46 78.21 536.635 78.8375 536.635 79.5825C536.635 80.3025 536.472 80.9175 536.147 81.4275C535.827 81.9325 535.38 82.32 534.805 82.59C534.23 82.855 533.562 82.9875 532.802 82.9875H530.372V87H528.947ZM530.365 81.8175H532.772C533.512 81.8175 534.115 81.61 534.58 81.195C535.05 80.78 535.285 80.215 535.285 79.5C535.285 78.78 535.045 78.235 534.565 77.865C534.085 77.495 533.465 77.31 532.705 77.31H530.365V81.8175ZM540.827 87.15C539.752 87.15 538.889 86.8075 538.239 86.1225C537.589 85.4375 537.264 84.4475 537.264 83.1525C537.264 82.3425 537.402 81.6325 537.677 81.0225C537.952 80.4125 538.354 79.94 538.884 79.605C539.414 79.265 540.062 79.095 540.827 79.095C541.897 79.095 542.752 79.445 543.392 80.145C544.032 80.845 544.352 81.8475 544.352 83.1525C544.352 83.9425 544.217 84.6375 543.947 85.2375C543.682 85.8375 543.287 86.3075 542.762 86.6475C542.242 86.9825 541.597 87.15 540.827 87.15ZM540.827 86.055C541.522 86.055 542.054 85.795 542.424 85.275C542.794 84.75 542.979 84.0325 542.979 83.1225C542.979 82.5675 542.904 82.07 542.754 81.63C542.609 81.185 542.379 80.8325 542.064 80.5725C541.749 80.3125 541.337 80.1825 540.827 80.1825C540.122 80.1825 539.582 80.4425 539.207 80.9625C538.832 81.4775 538.644 82.1975 538.644 83.1225C538.644 83.6675 538.719 84.1625 538.869 84.6075C539.019 85.0525 539.254 85.405 539.574 85.665C539.894 85.925 540.312 86.055 540.827 86.055ZM547.89 87.0975C547.33 87.0975 546.91 87 546.63 86.805C546.35 86.605 546.163 86.3475 546.068 86.0325C545.978 85.7125 545.933 85.37 545.933 85.005V75.855H547.298V84.87C547.298 85.265 547.373 85.56 547.523 85.755C547.678 85.945 547.893 86.05 548.168 86.07L548.588 86.0775V86.9775C548.338 87.0575 548.105 87.0975 547.89 87.0975ZM551.667 76.1625V77.6025H550.249V76.1625H551.667ZM551.637 79.245V87H550.294V79.245H551.637ZM556.933 79.095C557.768 79.095 558.47 79.3325 559.04 79.8075C559.61 80.2775 559.948 80.9075 560.053 81.6975H558.823C558.753 81.2925 558.555 80.945 558.23 80.655C557.905 80.36 557.475 80.2125 556.94 80.2125C556.28 80.2125 555.74 80.4525 555.32 80.9325C554.905 81.4125 554.698 82.1475 554.698 83.1375C554.698 84.0325 554.888 84.75 555.268 85.29C555.653 85.825 556.218 86.0925 556.963 86.0925C557.493 86.0925 557.92 85.9425 558.245 85.6425C558.57 85.3425 558.765 84.9975 558.83 84.6075H560.038C559.938 85.3875 559.6 86.0075 559.025 86.4675C558.455 86.9225 557.758 87.15 556.933 87.15C556.233 87.15 555.615 86.9975 555.08 86.6925C554.545 86.3875 554.125 85.9375 553.82 85.3425C553.515 84.7475 553.363 84.0175 553.363 83.1525C553.363 82.3475 553.5 81.64 553.775 81.03C554.055 80.42 554.46 79.945 554.99 79.605C555.525 79.265 556.173 79.095 556.933 79.095ZM562.328 89.475C561.873 89.475 561.56 89.4425 561.39 89.3775C561.22 89.3125 561.135 89.28 561.135 89.28V88.38L561.923 88.395C562.308 88.41 562.605 88.3725 562.815 88.2825C563.03 88.1925 563.188 88.08 563.288 87.945C563.388 87.81 563.465 87.6775 563.52 87.5475L563.79 86.8125L560.76 79.245H562.163L564.45 85.23L566.723 79.245H568.08L564.81 87.585C564.51 88.325 564.155 88.825 563.745 89.085C563.335 89.345 562.863 89.475 562.328 89.475Z" fill="white"/>
</g>
<path d="M18.8958 75H1.10417C0.494167 75 0 75.4942 0 76.1042V93.8967C0 94.5058 0.494167 95 1.10417 95H10.6833V87.255H8.07667V84.2367H10.6833V82.0108C10.6833 79.4275 12.2608 78.0208 14.5658 78.0208C15.67 78.0208 16.6183 78.1033 16.895 78.14V80.84L15.2967 80.8408C14.0433 80.8408 13.8008 81.4367 13.8008 82.31V84.2375H16.79L16.4008 87.2558H13.8008V95H18.8975C19.5058 95 20 94.5058 20 93.8958V76.1042C20 75.4942 19.5058 75 18.8958 75Z" fill="white"/>
<path fill-rule="evenodd" clip-rule="evenodd" d="M143.333 75C140.618 75 140.278 75.0117 139.211 75.06C135.579 75.2267 133.561 77.2417 133.394 80.8767C133.345 81.9442 133.333 82.2842 133.333 85C133.333 87.7158 133.345 88.0567 133.393 89.1233C133.56 92.755 135.575 94.7733 139.21 94.94C140.278 94.9883 140.618 95 143.333 95C146.049 95 146.39 94.9883 147.457 94.94C151.085 94.7733 153.108 92.7583 153.273 89.1233C153.322 88.0567 153.333 87.7158 153.333 85C153.333 82.2842 153.322 81.9442 153.273 80.8775C153.11 77.2492 151.093 75.2275 147.458 75.0608C146.39 75.0117 146.049 75 143.333 75ZM143.333 76.8025C146.003 76.8025 146.32 76.8125 147.375 76.8608C150.085 76.9842 151.351 78.27 151.474 80.96C151.523 82.0142 151.532 82.3308 151.532 85.0008C151.532 87.6717 151.522 87.9875 151.474 89.0417C151.35 91.7292 150.088 93.0175 147.375 93.1408C146.32 93.1892 146.005 93.1992 143.333 93.1992C140.663 93.1992 140.347 93.1892 139.293 93.1408C136.576 93.0167 135.317 91.725 135.193 89.0408C135.145 87.9867 135.135 87.6708 135.135 85C135.135 82.33 135.146 82.0142 135.193 80.9592C135.318 78.27 136.58 76.9833 139.293 76.86C140.348 76.8125 140.663 76.8025 143.333 76.8025ZM138.198 85C138.198 82.1642 140.498 79.865 143.333 79.865C146.169 79.865 148.468 82.1642 148.468 85C148.468 87.8367 146.169 90.1358 143.333 90.1358C140.498 90.1358 138.198 87.8358 138.198 85ZM143.333 88.3333C141.493 88.3333 140 86.8417 140 85C140 83.1592 141.493 81.6667 143.333 81.6667C145.174 81.6667 146.667 83.1592 146.667 85C146.667 86.8417 145.174 88.3333 143.333 88.3333ZM147.471 79.6625C147.471 79 148.008 78.4625 148.672 78.4625C149.334 78.4625 149.871 79 149.871 79.6625C149.871 80.325 149.334 80.8625 148.672 80.8625C148.008 80.8625 147.471 80.325 147.471 79.6625Z" fill="white"/>
<path d="M110 75C104.477 75 100 79.4767 100 85C100 89.2367 102.636 92.855 106.356 94.3117C106.268 93.5208 106.189 92.3075 106.391 91.4442C106.573 90.6633 107.563 86.4733 107.563 86.4733C107.563 86.4733 107.264 85.8742 107.264 84.9883C107.264 83.5983 108.07 82.56 109.073 82.56C109.926 82.56 110.338 83.2008 110.338 83.9683C110.338 84.8258 109.793 86.1083 109.51 87.2975C109.274 88.2925 110.009 89.105 110.991 89.105C112.768 89.105 114.134 87.2308 114.134 84.5258C114.134 82.1317 112.414 80.4575 109.958 80.4575C107.113 80.4575 105.443 82.5917 105.443 84.7967C105.443 85.6558 105.773 86.5783 106.187 87.0783C106.268 87.1775 106.28 87.265 106.256 87.3658L105.978 88.4992C105.934 88.6825 105.833 88.7217 105.643 88.6333C104.394 88.0517 103.613 86.2258 103.613 84.7592C103.613 81.605 105.905 78.7075 110.221 78.7075C113.69 78.7075 116.386 81.18 116.386 84.4833C116.386 87.93 114.213 90.7033 111.197 90.7033C110.183 90.7033 109.231 90.1775 108.905 89.555L108.282 91.9325C108.056 92.8017 107.447 93.8908 107.038 94.5542C107.975 94.8433 108.969 95 110 95C115.523 95 120 90.5225 120 85C120 79.4767 115.523 75 110 75Z" fill="white"/>
<path d="M86.6667 78.7975C85.9309 79.1241 85.14 79.3441 84.31 79.4433C85.1575 78.9358 85.8084 78.1316 86.1142 77.1733C85.3217 77.6433 84.4434 77.985 83.5084 78.1691C82.7609 77.3716 81.6934 76.8733 80.5134 76.8733C77.8642 76.8733 75.9175 79.345 76.5159 81.9108C73.1067 81.74 70.0834 80.1066 68.0592 77.6241C66.9842 79.4683 67.5017 81.8808 69.3284 83.1025C68.6567 83.0808 68.0234 82.8966 67.4709 82.5891C67.4259 84.49 68.7884 86.2683 70.7617 86.6641C70.1842 86.8208 69.5517 86.8575 68.9084 86.7341C69.43 88.3641 70.945 89.55 72.7417 89.5833C71.0167 90.9358 68.8434 91.54 66.6667 91.2833C68.4825 92.4475 70.64 93.1266 72.9567 93.1266C80.575 93.1266 84.8792 86.6925 84.6192 80.9216C85.4209 80.3425 86.1167 79.62 86.6667 78.7975Z" fill="white"/>
<path fill-rule="evenodd" clip-rule="evenodd" d="M43.3333 75C37.8108 75 33.3333 79.4775 33.3333 85C33.3333 90.5225 37.8108 95 43.3333 95C48.8558 95 53.3333 90.5225 53.3333 85C53.3333 79.4775 48.8558 75 43.3333 75ZM47.0341 89.0767C45.2825 89.1967 41.3808 89.1967 39.6316 89.0767C37.735 88.9467 37.5141 88.0183 37.5 85C37.5141 81.9758 37.7375 81.0533 39.6316 80.9233C41.3808 80.8033 45.2833 80.8033 47.0341 80.9233C48.9316 81.0533 49.1516 81.9817 49.1666 85C49.1516 88.0242 48.9291 88.9467 47.0341 89.0767ZM45.7641 84.9967L41.6666 83.0483V86.9517L45.7641 84.9967Z" fill="white"/>
<path fill-rule="evenodd" clip-rule="evenodd" d="M91.2953 15.8461C94.7958 15.8461 97.2684 13.3312 97.2684 9.79811C97.2684 6.26505 94.7958 3.75032 91.2953 3.75032C90.244 3.75053 89.284 4.03158 88.4703 4.53411V0H84.5991V15.4737H87.4968L87.8661 14.6297C88.7897 15.4013 89.9686 15.8461 91.2953 15.8461ZM64.6905 15.8461C67.7113 15.8463 69.7164 14.2916 69.7164 11.9158C69.7164 9.08169 67.4088 8.67295 65.6246 8.3569L65.5328 8.34063L65.5103 8.33662C64.4408 8.14588 63.5833 7.99298 63.5833 7.35053C63.5833 6.82358 64.005 6.51284 64.6328 6.51284C65.3423 6.51284 65.8303 6.85032 65.8303 7.57621H69.4972C69.4526 5.27263 67.5764 3.73263 64.6814 3.73263C61.7686 3.73263 59.8267 5.20379 59.8267 7.48253C59.8267 10.2398 62.1635 10.7718 63.9263 11.0575C65.0185 11.2381 65.8791 11.4251 65.8791 12.0808C65.8791 12.6684 65.3362 12.9606 64.7633 12.9606C64.0208 12.9606 63.4421 12.5779 63.4421 11.7465H59.673C59.7088 14.2097 61.592 15.8461 64.6905 15.8461ZM43.7059 11.6309C42.9059 14.2255 40.6061 15.8465 37.7539 15.8465C34.2067 15.8465 31.5789 13.2539 31.5789 9.78084C31.5789 6.29558 34.1857 3.73284 37.7539 3.73284C41.4183 3.73284 43.9556 6.34716 43.9553 9.68211C43.9553 10.0246 43.9254 10.3672 43.8745 10.7187H35.433C35.6892 12.0227 36.5174 12.6971 37.7539 12.6971C38.6686 12.6971 39.4328 12.2964 39.8092 11.6309H43.7059ZM35.5021 8.55032H40.0979C39.7543 7.4141 38.9353 6.80105 37.7537 6.80105C36.6124 6.80105 35.8189 7.42105 35.5021 8.55032ZM51.044 15.8463C52.3644 15.8463 53.5433 15.4118 54.4743 14.6577L54.8097 15.4617H57.8368V4.09326L54.9183 4.09305L54.5177 4.97221C53.5789 4.19768 52.3829 3.75053 51.044 3.75053C47.5678 3.75053 45.0829 6.25642 45.0829 9.77726C45.0829 13.3103 47.5678 15.8463 51.044 15.8463ZM49.0227 9.78632C49.0227 11.2709 50.1008 12.3792 51.5676 12.3792C53.0343 12.3792 54.1124 11.2709 54.1124 9.78632C54.1124 8.31074 53.0343 7.20253 51.5676 7.20253C50.092 7.20253 49.0227 8.31074 49.0227 9.78632ZM78.6675 14.9678C77.1351 18.4472 75.7265 19.704 72.7911 19.704H71.4503V16.3394H72.5271C74.0252 16.3394 74.477 15.9493 75.0075 14.5345L70.3097 4.10526H74.5648L76.9774 10.3678L79.2257 4.10526H83.4324L78.6675 14.9678ZM88.2267 9.79811C88.2267 11.2705 89.3048 12.3787 90.7715 12.3787C92.2292 12.3787 93.3164 11.2705 93.3164 9.79811C93.3164 8.31347 92.2383 7.20526 90.7715 7.20526C89.3048 7.20526 88.2267 8.31347 88.2267 9.79811ZM104.37 15.8463C105.691 15.8463 106.87 15.4118 107.801 14.6577L108.136 15.4617H111.163V4.09326L108.245 4.09305L107.844 4.97221C106.905 4.19768 105.709 3.75053 104.37 3.75053C100.894 3.75053 98.4092 6.25642 98.4092 9.77726C98.4092 13.3103 100.894 15.8463 104.37 15.8463ZM102.349 9.78632C102.349 11.2709 103.427 12.3792 104.894 12.3792C106.361 12.3792 107.439 11.2709 107.439 9.78632C107.439 8.31074 106.361 7.20253 104.894 7.20253C103.418 7.20253 102.349 8.31074 102.349 9.78632ZM117.546 15.4737V9.40295C117.546 7.956 118.249 7.10316 119.47 7.10316C120.456 7.10316 120.953 7.75958 120.953 9.08274V15.4737H124.868V8.54169C124.868 5.64526 123.134 3.76905 120.494 3.76905C119.024 3.76905 117.762 4.33432 116.916 5.27747L116.378 4.10526H113.631V15.4737H117.546ZM131.295 10.6661V15.4737H127.379V0H131.295V8.55895L134.003 4.10526H138.4L134.857 9.52358L138.759 15.4737H134.143L131.295 10.6661Z" fill="white"/>
<path fill-rule="evenodd" clip-rule="evenodd" d="M10.8025 0L0 19.704H5.98608L16.7885 0H10.8025Z" fill="url(#paint1_linear_0_1301)"/>
<path opacity="0.5" fill-rule="evenodd" clip-rule="evenodd" d="M18.1709 0L7.36841 19.704H13.3545L24.157 0H18.1709Z" fill="url(#paint2_linear_0_1301)"/>
<path opacity="0.15" fill-rule="evenodd" clip-rule="evenodd" d="M25.5393 0L14.7368 19.704H20.7229L31.5254 0H25.5393Z" fill="url(#paint3_linear_0_1301)"/>
<path opacity="0.5" d="M896.51 87.15C895.735 87.15 895.01 87.0075 894.335 86.7225C893.665 86.4325 893.075 86.0325 892.565 85.5225C892.055 85.0125 891.655 84.42 891.365 83.745C891.075 83.07 890.93 82.345 890.93 81.57C890.93 80.805 891.075 80.0875 891.365 79.4175C891.655 78.7425 892.055 78.15 892.565 77.64C893.075 77.13 893.665 76.73 894.335 76.44C895.01 76.15 895.735 76.005 896.51 76.005C897.275 76.005 897.993 76.15 898.663 76.44C899.338 76.73 899.93 77.13 900.44 77.64C900.955 78.15 901.355 78.7425 901.64 79.4175C901.93 80.0875 902.075 80.805 902.075 81.57C902.075 82.345 901.93 83.07 901.64 83.745C901.355 84.42 900.955 85.0125 900.44 85.5225C899.93 86.0325 899.338 86.4325 898.663 86.7225C897.993 87.0075 897.275 87.15 896.51 87.15ZM896.51 86.2125C897.345 86.2125 898.108 86.0225 898.798 85.6425C899.493 85.2625 900.048 84.725 900.463 84.03C900.878 83.335 901.085 82.515 901.085 81.57C901.085 80.64 900.878 79.8275 900.463 79.1325C900.048 78.4325 899.493 77.89 898.798 77.505C898.108 77.115 897.345 76.92 896.51 76.92C895.65 76.92 894.873 77.115 894.178 77.505C893.488 77.89 892.94 78.4325 892.535 79.1325C892.13 79.8275 891.928 80.64 891.928 81.57C891.928 82.515 892.13 83.335 892.535 84.03C892.94 84.725 893.488 85.2625 894.178 85.6425C894.873 86.0225 895.65 86.2125 896.51 86.2125ZM896.54 78.405C897.17 78.405 897.685 78.575 898.085 78.915C898.49 79.255 898.803 79.6425 899.023 80.0775L897.995 80.3175C897.83 80.0025 897.633 79.75 897.403 79.56C897.178 79.365 896.908 79.2675 896.593 79.2675C896.088 79.2675 895.673 79.4675 895.348 79.8675C895.028 80.2675 894.868 80.8175 894.868 81.5175C894.868 82.2425 895.03 82.805 895.355 83.205C895.685 83.605 896.11 83.805 896.63 83.805C897.005 83.805 897.328 83.7 897.598 83.49C897.868 83.275 898.09 83 898.265 82.665L899.045 82.95C898.91 83.225 898.728 83.495 898.498 83.76C898.273 84.02 897.998 84.2375 897.673 84.4125C897.348 84.5825 896.97 84.6675 896.54 84.6675C895.975 84.6675 895.478 84.5375 895.048 84.2775C894.618 84.0125 894.28 83.6475 894.035 83.1825C893.79 82.7125 893.668 82.1675 893.668 81.5475C893.668 80.9275 893.79 80.3825 894.035 79.9125C894.285 79.4375 894.625 79.0675 895.055 78.8025C895.49 78.5375 895.985 78.405 896.54 78.405ZM907.087 87V76.155H913.927L913.919 77.3775H908.482V80.9175H913.379V82.1325H908.474V85.7475L914.069 85.7625V87H907.087ZM917.912 87.15C917.157 87.15 916.542 86.9525 916.067 86.5575C915.592 86.1625 915.354 85.61 915.354 84.9C915.354 84.04 915.654 83.4 916.254 82.98C916.854 82.56 917.817 82.335 919.142 82.305L920.529 82.2675V81.66C920.529 81.185 920.384 80.81 920.094 80.535C919.809 80.255 919.369 80.115 918.774 80.115C918.329 80.12 917.937 80.2275 917.597 80.4375C917.257 80.6425 917.039 80.975 916.944 81.435H915.722C915.762 80.68 916.057 80.1025 916.607 79.7025C917.157 79.2975 917.902 79.095 918.842 79.095C919.852 79.095 920.607 79.3075 921.107 79.7325C921.612 80.1575 921.864 80.775 921.864 81.585V87H920.679L920.582 85.545C920.277 86.15 919.894 86.57 919.434 86.805C918.974 87.035 918.467 87.15 917.912 87.15ZM918.332 86.1525C918.677 86.1525 919.017 86.07 919.352 85.905C919.692 85.74 919.972 85.53 920.192 85.275C920.412 85.015 920.524 84.74 920.529 84.45V83.1225L919.374 83.145C918.484 83.16 917.817 83.2925 917.372 83.5425C916.927 83.7875 916.704 84.195 916.704 84.765C916.704 85.205 916.854 85.5475 917.154 85.7925C917.459 86.0325 917.852 86.1525 918.332 86.1525ZM926.62 87.15C926.075 87.15 925.572 87.065 925.112 86.895C924.652 86.725 924.267 86.465 923.957 86.115C923.652 85.76 923.462 85.3025 923.387 84.7425H924.647C924.747 85.1975 924.975 85.54 925.33 85.77C925.69 86 926.117 86.115 926.612 86.115C927.132 86.115 927.552 86.0175 927.872 85.8225C928.192 85.6275 928.352 85.3275 928.352 84.9225C928.352 84.3775 928.01 84.0225 927.325 83.8575L925.72 83.46C925.09 83.31 924.587 83.075 924.212 82.755C923.842 82.435 923.657 81.9875 923.657 81.4125C923.652 80.7325 923.897 80.1775 924.392 79.7475C924.887 79.3125 925.627 79.095 926.612 79.095C927.452 79.095 928.13 79.285 928.645 79.665C929.165 80.045 929.435 80.5975 929.455 81.3225H928.232C928.177 80.9525 928.01 80.66 927.73 80.445C927.45 80.225 927.072 80.115 926.597 80.115C926.102 80.115 925.7 80.215 925.39 80.415C925.08 80.61 924.925 80.915 924.925 81.33C924.925 81.605 925.035 81.8225 925.255 81.9825C925.475 82.1375 925.8 82.2675 926.23 82.3725L927.782 82.7625C928.257 82.8875 928.627 83.065 928.892 83.295C929.157 83.525 929.342 83.7775 929.447 84.0525C929.552 84.3275 929.605 84.5925 929.605 84.8475C929.605 85.5625 929.342 86.125 928.817 86.535C928.292 86.945 927.56 87.15 926.62 87.15ZM932.044 89.475C931.589 89.475 931.277 89.4425 931.107 89.3775C930.937 89.3125 930.852 89.28 930.852 89.28V88.38L931.639 88.395C932.024 88.41 932.322 88.3725 932.532 88.2825C932.747 88.1925 932.904 88.08 933.004 87.945C933.104 87.81 933.182 87.6775 933.237 87.5475L933.507 86.8125L930.477 79.245H931.879L934.167 85.23L936.439 79.245H937.797L934.527 87.585C934.227 88.325 933.872 88.825 933.462 89.085C933.052 89.345 932.579 89.475 932.044 89.475ZM942.876 87.15C942.271 87.15 941.788 87.0475 941.428 86.8425C941.068 86.6375 940.798 86.3975 940.618 86.1225C940.438 85.8475 940.316 85.61 940.251 85.41L940.101 87H939.043V75.855H940.438V80.475C940.523 80.305 940.671 80.1125 940.881 79.8975C941.091 79.6825 941.368 79.495 941.713 79.335C942.063 79.175 942.486 79.095 942.981 79.095C943.951 79.095 944.721 79.4325 945.291 80.1075C945.866 80.7825 946.153 81.7775 946.153 83.0925C946.153 84.3125 945.878 85.295 945.328 86.04C944.783 86.78 943.966 87.15 942.876 87.15ZM942.628 86.085C943.253 86.085 943.763 85.8425 944.158 85.3575C944.558 84.8675 944.758 84.09 944.758 83.025C944.758 82.12 944.573 81.42 944.203 80.925C943.838 80.425 943.303 80.175 942.598 80.175C941.828 80.175 941.278 80.425 940.948 80.925C940.618 81.42 940.448 82.12 940.438 83.025C940.438 84.11 940.606 84.8925 940.941 85.3725C941.281 85.8475 941.843 86.085 942.628 86.085ZM949.772 87.15C949.017 87.15 948.402 86.9525 947.927 86.5575C947.452 86.1625 947.214 85.61 947.214 84.9C947.214 84.04 947.514 83.4 948.114 82.98C948.714 82.56 949.677 82.335 951.002 82.305L952.389 82.2675V81.66C952.389 81.185 952.244 80.81 951.954 80.535C951.669 80.255 951.229 80.115 950.634 80.115C950.189 80.12 949.797 80.2275 949.457 80.4375C949.117 80.6425 948.899 80.975 948.804 81.435H947.582C947.622 80.68 947.917 80.1025 948.467 79.7025C949.017 79.2975 949.762 79.095 950.702 79.095C951.712 79.095 952.467 79.3075 952.967 79.7325C953.472 80.1575 953.724 80.775 953.724 81.585V87H952.539L952.442 85.545C952.137 86.15 951.754 86.57 951.294 86.805C950.834 87.035 950.327 87.15 949.772 87.15ZM950.192 86.1525C950.537 86.1525 950.877 86.07 951.212 85.905C951.552 85.74 951.832 85.53 952.052 85.275C952.272 85.015 952.384 84.74 952.389 84.45V83.1225L951.234 83.145C950.344 83.16 949.677 83.2925 949.232 83.5425C948.787 83.7875 948.564 84.195 948.564 84.765C948.564 85.205 948.714 85.5475 949.014 85.7925C949.319 86.0325 949.712 86.1525 950.192 86.1525ZM955.859 87V79.245H957.202V80.37C957.392 80.045 957.689 79.7575 958.094 79.5075C958.499 79.2575 959.012 79.1325 959.632 79.1325C960.122 79.1325 960.572 79.23 960.982 79.425C961.397 79.62 961.727 79.925 961.972 80.34C962.222 80.75 962.347 81.28 962.347 81.93V87H960.959V82.065C960.959 81.46 960.799 81.0125 960.479 80.7225C960.164 80.4275 959.754 80.28 959.249 80.28C958.899 80.28 958.572 80.3375 958.267 80.4525C957.962 80.5625 957.714 80.7325 957.524 80.9625C957.334 81.1875 957.239 81.4725 957.239 81.8175V87H955.859ZM971.092 87H969.622L967.192 83.1075L965.662 84.69V87H964.282V75.855H965.662V83.1225L969.307 79.245H970.897L968.1 82.2L971.092 87ZM972.192 87V85.23H973.842V87H972.192ZM978.259 87L982.182 76.155H983.749L987.672 87H986.254L985.189 84.03H980.757L979.669 87H978.259ZM981.109 82.755H984.822L982.977 77.5275L981.109 82.755ZM991.157 87.0975C990.597 87.0975 990.177 87 989.897 86.805C989.617 86.605 989.429 86.3475 989.334 86.0325C989.244 85.7125 989.199 85.37 989.199 85.005V75.855H990.564V84.87C990.564 85.265 990.639 85.56 990.789 85.755C990.944 85.945 991.159 86.05 991.434 86.07L991.854 86.0775V86.9775C991.604 87.0575 991.372 87.0975 991.157 87.0975ZM995.17 87.0975C994.61 87.0975 994.19 87 993.91 86.805C993.63 86.605 993.443 86.3475 993.348 86.0325C993.258 85.7125 993.213 85.37 993.213 85.005V75.855H994.578V84.87C994.578 85.265 994.653 85.56 994.803 85.755C994.958 85.945 995.173 86.05 995.448 86.07L995.868 86.0775V86.9775C995.618 87.0575 995.385 87.0975 995.17 87.0975ZM1008.71 87H1007.24L1005.26 82.3275H1002.34V87H1000.95V76.155H1005.15C1006.33 76.155 1007.21 76.4175 1007.79 76.9425C1008.38 77.4675 1008.68 78.1925 1008.68 79.1175C1008.68 79.7075 1008.57 80.1975 1008.36 80.5875C1008.16 80.9775 1007.9 81.2925 1007.58 81.5325C1007.26 81.7675 1006.92 81.95 1006.58 82.08L1008.71 87ZM1004.7 81.18C1005.52 81.18 1006.15 81.015 1006.59 80.685C1007.04 80.35 1007.26 79.855 1007.26 79.2C1007.26 78.565 1007.06 78.0875 1006.66 77.7675C1006.27 77.4475 1005.72 77.2875 1005.03 77.2875H1002.34V81.18H1004.7ZM1012.01 76.1625V77.6025H1010.6V76.1625H1012.01ZM1011.98 79.245V87H1010.64V79.245H1011.98ZM1017.43 89.565C1016.22 89.565 1015.27 89.3875 1014.59 89.0325C1013.91 88.6825 1013.57 88.18 1013.57 87.525C1013.57 87.245 1013.63 87.0075 1013.76 86.8125C1013.89 86.6125 1014.05 86.4475 1014.23 86.3175C1014.41 86.1875 1014.58 86.085 1014.73 86.01C1014.89 85.93 1014.99 85.8725 1015.03 85.8375C1014.95 85.7875 1014.84 85.725 1014.71 85.65C1014.58 85.575 1014.47 85.475 1014.38 85.35C1014.28 85.225 1014.24 85.0625 1014.24 84.8625C1014.24 84.6175 1014.35 84.395 1014.57 84.195C1014.8 83.99 1015.15 83.835 1015.6 83.73C1015.15 83.505 1014.79 83.2025 1014.54 82.8225C1014.28 82.4375 1014.15 82.0225 1014.15 81.5775C1014.15 80.8225 1014.45 80.225 1015.05 79.785C1015.65 79.345 1016.48 79.125 1017.53 79.125C1018.03 79.125 1018.46 79.185 1018.8 79.305C1019.15 79.42 1019.47 79.585 1019.76 79.8C1019.87 79.755 1020.06 79.6775 1020.32 79.5675C1020.58 79.4575 1020.84 79.3475 1021.11 79.2375C1021.39 79.1225 1021.6 79.0375 1021.74 78.9825L1021.74 80.265L1020.38 80.52C1020.55 80.87 1020.63 81.2225 1020.63 81.5775C1020.63 82.2625 1020.36 82.8425 1019.82 83.3175C1019.29 83.7925 1018.48 84.03 1017.4 84.03C1017.34 84.03 1017.26 84.03 1017.17 84.03C1017.08 84.025 1017 84.02 1016.94 84.015C1016.4 84.03 1016.03 84.09 1015.83 84.195C1015.64 84.3 1015.54 84.4125 1015.54 84.5325C1015.54 84.6775 1015.65 84.7775 1015.88 84.8325C1016.1 84.8875 1016.49 84.935 1017.03 84.975C1017.22 84.985 1017.46 85 1017.75 85.02C1018.03 85.035 1018.35 85.0525 1018.71 85.0725C1019.52 85.1225 1020.15 85.33 1020.59 85.695C1021.03 86.06 1021.25 86.5525 1021.25 87.1725C1021.25 87.8775 1020.93 88.4525 1020.3 88.8975C1019.67 89.3425 1018.72 89.565 1017.43 89.565ZM1017.44 83.1375C1018 83.1375 1018.45 83.0075 1018.79 82.7475C1019.13 82.4875 1019.31 82.1025 1019.31 81.5925C1019.31 81.0725 1019.13 80.675 1018.79 80.4C1018.45 80.12 1018 79.98 1017.44 79.98C1016.87 79.98 1016.42 80.12 1016.07 80.4C1015.72 80.675 1015.55 81.0725 1015.55 81.5925C1015.55 82.0825 1015.71 82.4625 1016.04 82.7325C1016.37 83.0025 1016.84 83.1375 1017.44 83.1375ZM1017.68 88.6725C1018.39 88.6725 1018.94 88.565 1019.32 88.35C1019.7 88.135 1019.89 87.81 1019.89 87.375C1019.89 87.07 1019.77 86.8175 1019.54 86.6175C1019.31 86.4175 1018.96 86.3025 1018.48 86.2725L1016.31 86.13C1016.11 86.12 1015.91 86.17 1015.7 86.28C1015.49 86.385 1015.31 86.5325 1015.16 86.7225C1015.01 86.9125 1014.94 87.1275 1014.94 87.3675C1014.94 87.7825 1015.16 88.1025 1015.61 88.3275C1016.05 88.5575 1016.74 88.6725 1017.68 88.6725ZM1023.24 87V75.855H1024.59V80.385C1024.79 80.065 1025.08 79.78 1025.48 79.53C1025.88 79.275 1026.39 79.1475 1027.01 79.1475C1027.52 79.1475 1027.98 79.2425 1028.39 79.4325C1028.8 79.6175 1029.12 79.8825 1029.36 80.2275C1029.6 80.5725 1029.72 80.9825 1029.72 81.4575V87H1028.33V81.735C1028.33 81.27 1028.17 80.9125 1027.85 80.6625C1027.54 80.4075 1027.13 80.28 1026.62 80.28C1026.27 80.28 1025.94 80.3375 1025.63 80.4525C1025.33 80.5625 1025.09 80.7325 1024.9 80.9625C1024.71 81.1875 1024.62 81.475 1024.62 81.825V87H1023.24ZM1035.22 80.2575H1033.48V85.08C1033.48 85.495 1033.54 85.75 1033.67 85.845C1033.81 85.935 1034.06 85.98 1034.42 85.98H1035.27V86.91C1035.17 86.945 1035.02 86.975 1034.83 87C1034.64 87.025 1034.41 87.0375 1034.12 87.0375C1033.32 87.0375 1032.77 86.875 1032.49 86.55C1032.22 86.225 1032.08 85.75 1032.08 85.125V80.2575H1030.82V79.245H1032.12L1032.46 76.9875H1033.48V79.2375H1035.22V80.2575ZM1039.71 87.15C1039.16 87.15 1038.66 87.065 1038.2 86.895C1037.74 86.725 1037.35 86.465 1037.04 86.115C1036.74 85.76 1036.55 85.3025 1036.47 84.7425H1037.73C1037.83 85.1975 1038.06 85.54 1038.42 85.77C1038.78 86 1039.2 86.115 1039.7 86.115C1040.22 86.115 1040.64 86.0175 1040.96 85.8225C1041.28 85.6275 1041.44 85.3275 1041.44 84.9225C1041.44 84.3775 1041.1 84.0225 1040.41 83.8575L1038.81 83.46C1038.18 83.31 1037.67 83.075 1037.3 82.755C1036.93 82.435 1036.74 81.9875 1036.74 81.4125C1036.74 80.7325 1036.98 80.1775 1037.48 79.7475C1037.97 79.3125 1038.71 79.095 1039.7 79.095C1040.54 79.095 1041.22 79.285 1041.73 79.665C1042.25 80.045 1042.52 80.5975 1042.54 81.3225H1041.32C1041.26 80.9525 1041.1 80.66 1040.82 80.445C1040.54 80.225 1040.16 80.115 1039.68 80.115C1039.19 80.115 1038.79 80.215 1038.48 80.415C1038.17 80.61 1038.01 80.915 1038.01 81.33C1038.01 81.605 1038.12 81.8225 1038.34 81.9825C1038.56 82.1375 1038.89 82.2675 1039.32 82.3725L1040.87 82.7625C1041.34 82.8875 1041.71 83.065 1041.98 83.295C1042.24 83.525 1042.43 83.7775 1042.53 84.0525C1042.64 84.3275 1042.69 84.5925 1042.69 84.8475C1042.69 85.5625 1042.43 86.125 1041.9 86.535C1041.38 86.945 1040.65 87.15 1039.71 87.15ZM1055.6 87H1054.13L1052.15 82.3275H1049.23V87H1047.84V76.155H1052.04C1053.22 76.155 1054.1 76.4175 1054.68 76.9425C1055.27 77.4675 1055.57 78.1925 1055.57 79.1175C1055.57 79.7075 1055.46 80.1975 1055.25 80.5875C1055.05 80.9775 1054.79 81.2925 1054.47 81.5325C1054.15 81.7675 1053.81 81.95 1053.47 82.08L1055.6 87ZM1051.59 81.18C1052.41 81.18 1053.04 81.015 1053.48 80.685C1053.93 80.35 1054.15 79.855 1054.15 79.2C1054.15 78.565 1053.95 78.0875 1053.55 77.7675C1053.16 77.4475 1052.61 77.2875 1051.92 77.2875H1049.23V81.18H1051.59ZM1058.22 83.445C1058.22 83.935 1058.3 84.38 1058.46 84.78C1058.62 85.175 1058.87 85.49 1059.2 85.725C1059.53 85.96 1059.95 86.0775 1060.45 86.0775C1060.95 86.0775 1061.37 85.9625 1061.73 85.7325C1062.09 85.5025 1062.32 85.17 1062.42 84.735H1063.73C1063.63 85.26 1063.42 85.7025 1063.1 86.0625C1062.77 86.4225 1062.38 86.695 1061.92 86.88C1061.46 87.06 1060.98 87.15 1060.48 87.15C1059.76 87.15 1059.12 86.9925 1058.57 86.6775C1058.02 86.3625 1057.59 85.91 1057.28 85.32C1056.97 84.73 1056.81 84.0225 1056.81 83.1975C1056.81 82.3825 1056.95 81.6675 1057.23 81.0525C1057.51 80.4375 1057.92 79.9575 1058.45 79.6125C1058.98 79.2675 1059.63 79.095 1060.38 79.095C1061.47 79.095 1062.31 79.4425 1062.9 80.1375C1063.48 80.8275 1063.77 81.76 1063.77 82.935V83.445H1058.22ZM1058.22 82.5075H1062.44C1062.44 81.8425 1062.27 81.2825 1061.93 80.8275C1061.59 80.3725 1061.07 80.145 1060.37 80.145C1059.88 80.145 1059.48 80.2625 1059.16 80.4975C1058.84 80.7275 1058.6 81.025 1058.45 81.39C1058.29 81.75 1058.22 82.1225 1058.22 82.5075ZM1068.14 87.15C1067.59 87.15 1067.09 87.065 1066.63 86.895C1066.17 86.725 1065.79 86.465 1065.48 86.115C1065.17 85.76 1064.98 85.3025 1064.91 84.7425H1066.17C1066.27 85.1975 1066.49 85.54 1066.85 85.77C1067.21 86 1067.64 86.115 1068.13 86.115C1068.65 86.115 1069.07 86.0175 1069.39 85.8225C1069.71 85.6275 1069.87 85.3275 1069.87 84.9225C1069.87 84.3775 1069.53 84.0225 1068.84 83.8575L1067.24 83.46C1066.61 83.31 1066.11 83.075 1065.73 82.755C1065.36 82.435 1065.18 81.9875 1065.18 81.4125C1065.17 80.7325 1065.42 80.1775 1065.91 79.7475C1066.41 79.3125 1067.15 79.095 1068.13 79.095C1068.97 79.095 1069.65 79.285 1070.16 79.665C1070.68 80.045 1070.95 80.5975 1070.97 81.3225H1069.75C1069.7 80.9525 1069.53 80.66 1069.25 80.445C1068.97 80.225 1068.59 80.115 1068.12 80.115C1067.62 80.115 1067.22 80.215 1066.91 80.415C1066.6 80.61 1066.44 80.915 1066.44 81.33C1066.44 81.605 1066.55 81.8225 1066.77 81.9825C1066.99 82.1375 1067.32 82.2675 1067.75 82.3725L1069.3 82.7625C1069.78 82.8875 1070.15 83.065 1070.41 83.295C1070.68 83.525 1070.86 83.7775 1070.97 84.0525C1071.07 84.3275 1071.12 84.5925 1071.12 84.8475C1071.12 85.5625 1070.86 86.125 1070.34 86.535C1069.81 86.945 1069.08 87.15 1068.14 87.15ZM1073.82 83.445C1073.82 83.935 1073.9 84.38 1074.06 84.78C1074.22 85.175 1074.47 85.49 1074.8 85.725C1075.13 85.96 1075.55 86.0775 1076.05 86.0775C1076.55 86.0775 1076.97 85.9625 1077.33 85.7325C1077.69 85.5025 1077.92 85.17 1078.02 84.735H1079.33C1079.23 85.26 1079.02 85.7025 1078.7 86.0625C1078.37 86.4225 1077.98 86.695 1077.52 86.88C1077.06 87.06 1076.58 87.15 1076.08 87.15C1075.36 87.15 1074.72 86.9925 1074.17 86.6775C1073.62 86.3625 1073.19 85.91 1072.88 85.32C1072.57 84.73 1072.41 84.0225 1072.41 83.1975C1072.41 82.3825 1072.55 81.6675 1072.83 81.0525C1073.11 80.4375 1073.52 79.9575 1074.05 79.6125C1074.58 79.2675 1075.23 79.095 1075.98 79.095C1077.07 79.095 1077.91 79.4425 1078.5 80.1375C1079.08 80.8275 1079.37 81.76 1079.37 82.935V83.445H1073.82ZM1073.82 82.5075H1078.04C1078.04 81.8425 1077.87 81.2825 1077.53 80.8275C1077.19 80.3725 1076.67 80.145 1075.97 80.145C1075.48 80.145 1075.08 80.2625 1074.76 80.4975C1074.44 80.7275 1074.2 81.025 1074.05 81.39C1073.89 81.75 1073.82 82.1225 1073.82 82.5075ZM1081.04 87V79.245H1082.36V80.7375C1082.56 80.1825 1082.87 79.77 1083.29 79.5C1083.71 79.23 1084.17 79.095 1084.66 79.095C1084.77 79.095 1084.88 79.1025 1084.99 79.1175C1085.1 79.1325 1085.19 79.1575 1085.25 79.1925V80.535C1085.18 80.5 1085.08 80.4775 1084.96 80.4675C1084.84 80.4525 1084.75 80.445 1084.67 80.445C1084.05 80.405 1083.52 80.5225 1083.08 80.7975C1082.64 81.0725 1082.42 81.5325 1082.42 82.1775V87H1081.04ZM1093.04 79.245L1090.24 87H1088.98L1086.18 79.245H1087.48L1089.54 85.26H1089.67L1091.74 79.245H1093.04ZM1095 83.445C1095 83.935 1095.08 84.38 1095.24 84.78C1095.4 85.175 1095.65 85.49 1095.98 85.725C1096.32 85.96 1096.73 86.0775 1097.23 86.0775C1097.73 86.0775 1098.15 85.9625 1098.51 85.7325C1098.87 85.5025 1099.1 85.17 1099.2 84.735H1100.51C1100.42 85.26 1100.21 85.7025 1099.88 86.0625C1099.56 86.4225 1099.16 86.695 1098.7 86.88C1098.24 87.06 1097.76 87.15 1097.26 87.15C1096.54 87.15 1095.9 86.9925 1095.35 86.6775C1094.8 86.3625 1094.37 85.91 1094.06 85.32C1093.75 84.73 1093.6 84.0225 1093.6 83.1975C1093.6 82.3825 1093.74 81.6675 1094.02 81.0525C1094.3 80.4375 1094.7 79.9575 1095.23 79.6125C1095.77 79.2675 1096.41 79.095 1097.16 79.095C1098.25 79.095 1099.09 79.4425 1099.68 80.1375C1100.26 80.8275 1100.56 81.76 1100.56 82.935V83.445H1095ZM1095.01 82.5075H1099.22C1099.22 81.8425 1099.05 81.2825 1098.71 80.8275C1098.37 80.3725 1097.85 80.145 1097.15 80.145C1096.67 80.145 1096.26 80.2625 1095.94 80.4975C1095.62 80.7275 1095.39 81.025 1095.23 81.39C1095.08 81.75 1095 82.1225 1095.01 82.5075ZM1105.02 87.15C1104.01 87.15 1103.21 86.805 1102.62 86.115C1102.04 85.425 1101.75 84.4175 1101.75 83.0925C1101.75 81.8825 1102.01 80.915 1102.54 80.19C1103.08 79.46 1103.87 79.095 1104.92 79.095C1105.41 79.095 1105.83 79.175 1106.17 79.335C1106.52 79.495 1106.8 79.6825 1107.01 79.8975C1107.23 80.1125 1107.38 80.305 1107.46 80.475V75.855H1108.86V87H1107.8L1107.65 85.41C1107.58 85.61 1107.46 85.8475 1107.28 86.1225C1107.1 86.3975 1106.83 86.6375 1106.47 86.8425C1106.11 87.0475 1105.63 87.15 1105.02 87.15ZM1105.27 86.085C1106.06 86.085 1106.62 85.8475 1106.95 85.3725C1107.29 84.8925 1107.46 84.11 1107.46 83.025C1107.45 82.12 1107.28 81.42 1106.95 80.925C1106.62 80.425 1106.07 80.175 1105.3 80.175C1104.67 80.175 1104.15 80.4025 1103.74 80.8575C1103.34 81.3075 1103.14 82.03 1103.14 83.025C1103.14 83.995 1103.32 84.7475 1103.68 85.2825C1104.05 85.8175 1104.58 86.085 1105.27 86.085Z" fill="white"/>
</g>
<defs>
<linearGradient id="paint0_linear_0_1301" x1="865.842" y1="22.9077" x2="887.89" y2="104.587" gradientUnits="userSpaceOnUse">
<stop stop-color="#33D35E"/>
<stop offset="1" stop-color="#2AB6D9"/>
</linearGradient>
<linearGradient id="paint1_linear_0_1301" x1="5.13267" y1="-7.42211" x2="-10.1946" y2="9.91277" gradientUnits="userSpaceOnUse">
<stop stop-color="#33D35E"/>
<stop offset="1" stop-color="#2AB6D9"/>
</linearGradient>
<linearGradient id="paint2_linear_0_1301" x1="12.5011" y1="-7.42211" x2="-2.82619" y2="9.91277" gradientUnits="userSpaceOnUse">
<stop stop-color="#33D35E"/>
<stop offset="1" stop-color="#2AB6D9"/>
</linearGradient>
<linearGradient id="paint3_linear_0_1301" x1="19.8695" y1="-7.42211" x2="4.54222" y2="9.91277" gradientUnits="userSpaceOnUse">
<stop stop-color="#33D35E"/>
<stop offset="1" stop-color="#2AB6D9"/>
</linearGradient>
<clipPath id="clip0_0_1301">
<rect width="1110" height="95" fill="white"/>
</clipPath>
<clipPath id="clip1_0_1301">
<rect width="163" height="44" fill="white" transform="translate(947 1)"/>
</clipPath>
<clipPath id="clip2_0_1301">
<rect width="160" height="94" fill="white" transform="translate(285 1)"/>
</clipPath>
<clipPath id="clip3_0_1301">
<rect width="160" height="94" fill="white" transform="translate(475 1)"/>
</clipPath>
</defs>
</svg>
